<svg width="1439" height="346" viewBox="0 0 1439 346" fill="none" xmlns="http://www.w3.org/2000/svg">
<g clip-path="url(#clip0)">
<path d="M1440.03 341.342C1527.7 341.121 1529.66 371.907 1588.67 371.907C1743.35 371.907 1542.67 460 1542.67 460H-80C-80 460 -158.463 341.342 -0.118774 341.342C74.5 341.342 123.889 303 205.617 303C287.345 303 325.838 333.556 411.353 341.342C513.666 350.658 526.062 306.682 617.089 311.5C681.712 314.92 758.191 338.125 822.825 341.342C903.106 345.339 948.699 327.116 1028.56 318C1114.09 308.237 1148.33 288.524 1234.3 293C1321.01 297.515 1352.72 341.563 1440.03 341.342Z" fill="white"/>
<path opacity="0.5" fill-rule="evenodd" clip-rule="evenodd" d="M1530.67 358.839C1510.55 350.481 1488.26 341.22 1440.03 341.342C1394.67 341.457 1364.31 329.621 1333.45 317.589C1327.37 315.215 1321.26 312.834 1315.01 310.535C1319.46 311.501 1323.86 312.484 1328.27 313.467C1360.78 320.72 1393.22 327.959 1440 328.096C1488.22 328.237 1510.51 317.542 1530.62 307.89C1547.07 299.996 1562.07 292.8 1588.62 292.8C1616.25 292.8 1635.41 308.861 1648.24 335.247C1635.41 358.037 1616.26 371.907 1588.67 371.907C1562.12 371.907 1547.12 365.675 1530.67 358.839ZM-32.695 333.646C-23.8428 338.629 -13.0745 341.342 -0.118753 341.342C36.3419 341.342 66.7789 332.188 97.9081 322.825C130.487 313.027 163.823 303 205.617 303C249.952 303 281.564 311.992 314.86 321.462C342.944 329.451 372.227 337.78 411.353 341.342C465.185 346.244 494.125 336.392 522.723 326.657C548.478 317.89 573.956 309.217 617.089 311.5C649.213 313.2 684.267 319.789 719.34 326.382C754.821 333.051 790.321 339.724 822.825 341.342C875.047 343.942 912.591 337.14 954.438 329.558C976.922 325.485 1000.65 321.186 1028.56 318C1060.17 314.392 1084.78 309.424 1107.58 304.821C1116.26 303.067 1124.69 301.366 1133.14 299.813C1107.92 301.363 1082.84 303.844 1053.36 306.759C1045.44 307.542 1037.21 308.356 1028.57 309.192C994.767 312.463 967.45 318.509 941.167 324.326C904.621 332.415 870.073 340.061 822.857 339.192C782.549 338.45 751.822 329.254 721.218 320.096C689.806 310.695 658.523 301.333 617.143 301.192C576.85 301.054 546.079 310.329 515.427 319.569C484.011 329.039 452.719 338.471 411.429 337.692C370.236 336.915 339.316 326.092 308.375 315.262C277.564 304.478 246.732 293.686 205.714 292.8C163.726 291.892 130.986 301.29 98.5012 310.615C67.9381 319.388 37.6007 328.096 2.11538e-05 328.096C-12.4918 328.096 -23.3368 330.029 -32.695 333.646Z" fill="white"/>
<path opacity="0.2" d="M184.253 6.00078C96.5919 6.2566 57.4341 116.876 0 116.876C-154.672 116.876 -43.9341 504.501 -43.9341 504.501H1578.57C1578.57 504.501 1718.57 127.751 1578.57 127.751C1487 127.751 1515.5 116.876 1440 116.876C1362.2 116.876 1256.19 89.3488 1180.19 106.001C1094.56 124.764 1068.45 215.702 981.003 209.501C870.493 201.663 892.603 7.49567 781.816 7.5007C671.583 7.50571 692.541 199.107 582.628 207.501C495.841 214.128 461.111 146.786 383.441 107.501C305.535 68.0963 271.558 5.746 184.253 6.00078Z" fill="url(#paint0_linear)" stroke="white" stroke-width="2"/>
<path opacity="0.3" d="M184.253 207.692C96.5918 207.948 59 102.8 0 102.8C-154.672 102.8 -43.9341 606.192 -43.9341 606.192H1578.57C1578.57 606.192 1780.97 108.442 1586.57 108.442C1509 108.442 1504 102.8 1440 102.8C1362.2 102.8 1256.19 -8.96015 1180.19 7.69178C1094.56 26.4546 1068.45 117.393 981.003 111.192C870.493 103.354 892.604 209.187 781.816 209.192C671.583 209.197 692.541 0.798279 582.628 9.1918C495.841 15.8194 461.111 148.477 383.441 109.192C305.535 69.7873 271.558 207.437 184.253 207.692Z" fill="url(#paint1_linear)" stroke="white" stroke-width="2"/>
<path opacity="0.4" d="M184.253 6.11119C96.7498 2.0686 73 109.611 0 109.611C-194.069 109.611 -43.9341 604.611 -43.9341 604.611H1578.57V6.11119C1528.82 77.3674 1526.9 109.073 1440 109.611C1352.06 110.156 1268.13 5.74937 1180.19 6.11119C1092.94 6.47016 1052.33 59.3618 981.003 109.611C891.155 172.908 891.401 299.216 781.816 307.611C694.747 314.281 669.952 207.698 582.628 207.611C495.13 207.524 470.794 312.649 383.441 307.611C242.597 299.489 325.181 12.6219 184.253 6.11119Z" fill="url(#paint2_linear)" stroke="white" stroke-width="2"/>
</g>
<defs>
<linearGradient id="paint0_linear" x1="767.316" y1="-94.3247" x2="767.316" y2="504.501" gradientUnits="userSpaceOnUse">
<stop offset="3.66087e-09" stop-color="white" stop-opacity="0.3"/>
<stop offset="1" stop-color="white" stop-opacity="0"/>
</linearGradient>
<linearGradient id="paint1_linear" x1="767.316" y1="7.36637" x2="767.316" y2="606.192" gradientUnits="userSpaceOnUse">
<stop offset="3.66087e-09" stop-color="white" stop-opacity="0.3"/>
<stop offset="1" stop-color="white" stop-opacity="0"/>
</linearGradient>
<linearGradient id="paint2_linear" x1="767.316" y1="5.78585" x2="767.316" y2="604.611" gradientUnits="userSpaceOnUse">
<stop offset="3.66087e-09" stop-color="white" stop-opacity="0.3"/>
<stop offset="1" stop-color="white" stop-opacity="0"/>
</linearGradient>
<clipPath id="clip0">
<rect width="1439" height="346" fill="white"/>
</clipPath>
</defs>
</svg>
