<svg width="1439" height="346" viewBox="0 0 1439 346" fill="none" xmlns="http://www.w3.org/2000/svg">
<g clip-path="url(#clip0)">
<path d="M1440 328.096C1527.66 328.352 1529.62 292.8 1588.62 292.8C1743.29 292.8 1632.55 796.192 1632.55 796.192H10.0519C10.0519 796.192 -194.408 328.096 0 328.096C77.5659 328.096 124.223 291.038 205.714 292.8C287.922 294.577 329.216 336.141 411.429 337.692C493.005 339.23 535.552 300.913 617.143 301.192C698.838 301.471 741.175 337.688 822.857 339.192C904.03 340.686 947.763 317.011 1028.57 309.192C1108.63 301.445 1153.94 295.565 1234.29 299.192C1315.33 302.85 1352.7 327.841 1440 328.096Z" fill="white" stroke="white" stroke-width="2"/>
<path opacity="0.5" d="M1440.03 341.342C1527.7 341.121 1529.66 371.907 1588.67 371.907C1743.35 371.907 1632.6 -64 1632.6 -64H9.9342C9.9342 -64 -158.463 341.342 -0.118774 341.342C74.5 341.342 123.889 303 205.617 303C287.345 303 325.838 333.556 411.353 341.342C513.666 350.658 526.062 306.682 617.089 311.5C681.712 314.92 758.191 338.125 822.825 341.342C903.106 345.339 948.699 327.116 1028.56 318C1114.09 308.237 1148.33 288.524 1234.3 293C1321.01 297.515 1352.72 341.563 1440.03 341.342Z" fill="#4CF2F2"/>
<path opacity="0.2" d="M184.253 6.00078C96.5919 6.2566 57.4341 116.876 0 116.876C-154.672 116.876 -43.9341 504.501 -43.9341 504.501H1578.57C1578.57 504.501 1718.57 127.751 1578.57 127.751C1487 127.751 1515.5 116.876 1440 116.876C1362.2 116.876 1256.19 89.3488 1180.19 106.001C1094.56 124.764 1068.45 215.702 981.003 209.501C870.493 201.663 892.603 7.49567 781.816 7.5007C671.583 7.50571 692.541 199.107 582.628 207.501C495.841 214.128 461.111 146.786 383.441 107.501C305.535 68.0963 271.558 5.746 184.253 6.00078Z" fill="url(#paint0_linear)" stroke="white" stroke-width="2"/>
<path opacity="0.3" d="M184.253 207.692C96.5918 207.948 59 102.8 0 102.8C-154.672 102.8 -43.9341 606.192 -43.9341 606.192H1578.57C1578.57 606.192 1780.97 108.442 1586.57 108.442C1509 108.442 1504 102.8 1440 102.8C1362.2 102.8 1256.19 -8.96015 1180.19 7.69178C1094.56 26.4546 1068.45 117.393 981.003 111.192C870.493 103.354 892.604 209.187 781.816 209.192C671.583 209.197 692.541 0.798279 582.628 9.1918C495.841 15.8194 461.111 148.477 383.441 109.192C305.535 69.7873 271.558 207.437 184.253 207.692Z" fill="url(#paint1_linear)" stroke="white" stroke-width="2"/>
<path opacity="0.4" d="M184.253 6.11119C96.7498 2.0686 73 109.611 0 109.611C-194.069 109.611 -43.9341 604.611 -43.9341 604.611H1578.57V6.11119C1528.82 77.3674 1526.9 109.073 1440 109.611C1352.06 110.156 1268.13 5.74937 1180.19 6.11119C1092.94 6.47016 1052.33 59.3618 981.003 109.611C891.155 172.908 891.401 299.216 781.816 307.611C694.747 314.281 669.952 207.698 582.628 207.611C495.13 207.524 470.794 312.649 383.441 307.611C242.597 299.489 325.181 12.6219 184.253 6.11119Z" fill="url(#paint2_linear)" stroke="white" stroke-width="2"/>
</g>
<defs>
<linearGradient id="paint0_linear" x1="767.316" y1="-94.3247" x2="767.316" y2="504.501" gradientUnits="userSpaceOnUse">
<stop offset="3.66087e-09" stop-color="white" stop-opacity="0.3"/>
<stop offset="1" stop-color="white" stop-opacity="0"/>
</linearGradient>
<linearGradient id="paint1_linear" x1="767.316" y1="7.36637" x2="767.316" y2="606.192" gradientUnits="userSpaceOnUse">
<stop offset="3.66087e-09" stop-color="white" stop-opacity="0.3"/>
<stop offset="1" stop-color="white" stop-opacity="0"/>
</linearGradient>
<linearGradient id="paint2_linear" x1="767.316" y1="5.78585" x2="767.316" y2="604.611" gradientUnits="userSpaceOnUse">
<stop offset="3.66087e-09" stop-color="white" stop-opacity="0.3"/>
<stop offset="1" stop-color="white" stop-opacity="0"/>
</linearGradient>
<clipPath id="clip0">
<rect width="1439" height="346" fill="white"/>
</clipPath>
</defs>
</svg>
