<svg width="1439" height="346" fill="none" xmlns="http://www.w3.org/2000/svg"><g clip-path="url(#clip0)"><path d="M1440 328.096c87.66.256 89.62-35.296 148.62-35.296 154.67 0 43.93 503.392 43.93 503.392H10.052S-194.408 328.096 0 328.096c77.566 0 124.223-37.058 205.714-35.296 82.208 1.777 123.502 43.341 205.715 44.892 81.576 1.538 124.123-36.779 205.714-36.5 81.695.279 124.032 36.496 205.714 38 81.173 1.494 124.906-22.181 205.713-30 80.06-7.747 125.37-13.627 205.72-10 81.04 3.658 118.41 28.649 205.71 28.904z" fill="#fff" stroke="#fff" stroke-width="2"/><path opacity=".5" d="M1440.03 341.342c87.67-.221 89.63 30.565 148.64 30.565C1743.35 371.907 1632.6-64 1632.6-64H9.934S-158.463 341.342-.119 341.342C74.5 341.342 123.89 303 205.617 303s120.221 30.556 205.736 38.342c102.313 9.316 114.709-34.66 205.736-29.842 64.623 3.42 141.102 26.625 205.736 29.842 80.281 3.997 125.874-14.226 205.735-23.342 85.53-9.763 119.77-29.476 205.74-25 86.71 4.515 118.42 48.563 205.73 48.342z" fill="#4CF2F2"/><path opacity=".2" d="M184.253 6C96.592 6.258 57.434 116.877 0 116.877c-154.672 0-43.934 387.625-43.934 387.625H1578.57s140-376.75 0-376.75c-91.57 0-63.07-10.875-138.57-10.875-77.8 0-183.81-27.527-259.81-10.875-85.63 18.763-111.74 109.701-199.187 103.5-110.51-7.838-88.4-202.005-199.187-202-110.233.005-89.275 191.606-199.188 200-86.787 6.627-121.517-60.715-199.187-100C305.535 68.096 271.558 5.746 184.253 6.001z" fill="url(#paint0_linear)" stroke="#fff" stroke-width="2"/><path opacity=".3" d="M184.253 207.692C96.592 207.948 59 102.8 0 102.8c-154.672 0-43.934 503.392-43.934 503.392H1578.57s202.4-497.75 8-497.75c-77.57 0-82.57-5.642-146.57-5.642-77.8 0-183.81-111.76-259.81-95.108-85.63 18.763-111.74 109.701-199.187 103.5-110.51-7.838-88.399 97.995-199.187 98-110.233.005-89.275-208.394-199.188-200-86.787 6.627-121.517 139.285-199.187 100-77.906-39.405-111.883 98.245-199.188 98.5z" fill="url(#paint1_linear)" stroke="#fff" stroke-width="2"/><path opacity=".4" d="M184.253 6.111C96.75 2.07 73 109.611 0 109.611c-194.069 0-43.934 495-43.934 495H1578.57V6.111c-49.75 71.256-51.67 102.962-138.57 103.5-87.94.545-171.87-103.862-259.81-103.5-87.25.36-127.86 53.25-199.187 103.5-89.848 63.297-89.602 189.605-199.187 198-87.069 6.67-111.864-99.913-199.188-100-87.498-.087-111.834 105.038-199.187 100-140.844-8.122-58.26-294.99-199.188-301.5z" fill="url(#paint2_linear)" stroke="#fff" stroke-width="2"/></g><defs><linearGradient id="paint0_linear" x1="767.316" y1="-94.325" x2="767.316" y2="504.501" gradientUnits="userSpaceOnUse"><stop offset="0" stop-color="#fff" stop-opacity=".3"/><stop offset="1" stop-color="#fff" stop-opacity="0"/></linearGradient><linearGradient id="paint1_linear" x1="767.316" y1="7.366" x2="767.316" y2="606.192" gradientUnits="userSpaceOnUse"><stop offset="0" stop-color="#fff" stop-opacity=".3"/><stop offset="1" stop-color="#fff" stop-opacity="0"/></linearGradient><linearGradient id="paint2_linear" x1="767.316" y1="5.786" x2="767.316" y2="604.611" gradientUnits="userSpaceOnUse"><stop offset="0" stop-color="#fff" stop-opacity=".3"/><stop offset="1" stop-color="#fff" stop-opacity="0"/></linearGradient><clipPath id="clip0"><path fill="#fff" d="M0 0h1439v346H0z"/></clipPath></defs></svg>