<svg width="1439" height="322" fill="none" xmlns="http://www.w3.org/2000/svg"><g opacity=".2" clip-path="url(#clip0)" stroke="#fff" stroke-width="2"><path d="M184.253 6.111C96.75 2.07 73 109.611 0 109.611c-194.069 0-43.934 495-43.934 495H1578.57V6.111c-49.75 71.256-51.67 102.962-138.57 103.5-87.94.545-171.87-103.862-259.81-103.5-87.25.36-127.86 53.25-199.187 103.5-89.848 63.297-89.602 189.605-199.187 198-87.069 6.67-111.864-99.913-199.188-100-87.498-.087-111.834 105.038-199.187 100-140.844-8.122-58.26-294.99-199.188-301.5z" fill="url(#paint0_linear)"/><path d="M184.253 6C96.592 6.258 57.434 116.877 0 116.877c-154.672 0-43.934 387.625-43.934 387.625H1578.57s140-376.75 0-376.75c-91.57 0-63.07-10.875-138.57-10.875-77.8 0-183.81-27.527-259.81-10.875-85.63 18.763-111.74 109.701-199.187 103.5-110.51-7.838-88.4-202.005-199.187-202-110.233.005-89.275 191.606-199.188 200-86.787 6.627-121.517-60.715-199.187-100C305.535 68.096 271.558 5.746 184.253 6.001z" fill="url(#paint1_linear)"/><path d="M184.253 207.692C96.592 207.948 59 102.8 0 102.8c-154.672 0-43.934 503.392-43.934 503.392H1578.57s202.4-497.75 8-497.75c-77.57 0-82.57-5.642-146.57-5.642-77.8 0-183.81-111.76-259.81-95.108-85.63 18.763-111.74 109.701-199.187 103.5-110.51-7.838-88.399 97.995-199.187 98-110.233.005-89.275-208.394-199.188-200-86.787 6.627-121.517 139.285-199.187 100-77.906-39.405-111.883 98.245-199.188 98.5z" fill="url(#paint2_linear)"/></g><defs><linearGradient id="paint0_linear" x1="767.316" y1="5.786" x2="767.316" y2="604.611" gradientUnits="userSpaceOnUse"><stop offset="0" stop-color="#fff" stop-opacity=".3"/><stop offset="1" stop-color="#fff" stop-opacity="0"/></linearGradient><linearGradient id="paint1_linear" x1="767.316" y1="-94.325" x2="767.316" y2="504.501" gradientUnits="userSpaceOnUse"><stop offset="0" stop-color="#fff" stop-opacity=".3"/><stop offset="1" stop-color="#fff" stop-opacity="0"/></linearGradient><linearGradient id="paint2_linear" x1="767.316" y1="7.366" x2="767.316" y2="606.192" gradientUnits="userSpaceOnUse"><stop offset="0" stop-color="#fff" stop-opacity=".3"/><stop offset="1" stop-color="#fff" stop-opacity="0"/></linearGradient><clipPath id="clip0"><path fill="#fff" d="M0 0h1439v322H0z"/></clipPath></defs></svg>