<svg width="1439" height="346" fill="none" xmlns="http://www.w3.org/2000/svg"><g clip-path="url(#clip0)"><path d="M1440.03 341.342c87.67-.221 89.63 30.565 148.64 30.565 154.68 0-46 88.093-46 88.093H-80S-158.463 341.342-.119 341.342C74.5 341.342 123.89 303 205.617 303s120.221 30.556 205.736 38.342c102.313 9.316 114.709-34.66 205.736-29.842 64.623 3.42 141.102 26.625 205.736 29.842 80.281 3.997 125.874-14.226 205.735-23.342 85.53-9.763 119.77-29.476 205.74-25 86.71 4.515 118.42 48.563 205.73 48.342z" fill="#fff"/><path opacity=".5" fill-rule="evenodd" clip-rule="evenodd" d="M1530.67 358.839c-20.12-8.358-42.41-17.619-90.64-17.497-45.36.115-75.72-11.721-106.58-23.753-6.08-2.374-12.19-4.755-18.44-7.054 4.45.966 8.85 1.949 13.26 2.932 32.51 7.253 64.95 14.492 111.73 14.629 48.22.141 70.51-10.554 90.62-20.206 16.45-7.894 31.45-15.09 58-15.09 27.63 0 46.79 16.061 59.62 42.447-12.83 22.79-31.98 36.66-59.57 36.66-26.55 0-41.55-6.232-58-13.068zM-32.695 333.646c8.852 4.983 19.62 7.696 32.576 7.696 36.46 0 66.898-9.154 98.027-18.517C130.487 313.027 163.823 303 205.617 303c44.335 0 75.947 8.992 109.243 18.462 28.084 7.989 57.367 16.318 96.493 19.88 53.832 4.902 82.772-4.95 111.37-14.685 25.755-8.767 51.233-17.44 94.366-15.157 32.124 1.7 67.178 8.289 102.251 14.882 35.481 6.669 70.981 13.342 103.485 14.96 52.222 2.6 89.766-4.202 131.613-11.784 22.484-4.073 46.212-8.372 74.122-11.558 31.61-3.608 56.22-8.576 79.02-13.179 8.68-1.754 17.11-3.455 25.56-5.008-25.22 1.55-50.3 4.031-79.78 6.946-7.92.783-16.15 1.597-24.79 2.433-33.803 3.271-61.12 9.317-87.403 15.134-36.546 8.089-71.094 15.735-118.31 14.866-40.308-.742-71.035-9.938-101.639-19.096-31.412-9.401-62.695-18.763-104.075-18.904-40.293-.138-71.064 9.137-101.716 18.377-31.416 9.47-62.708 18.902-103.998 18.123-41.193-.777-72.113-11.6-103.054-22.43-30.811-10.784-61.643-21.576-102.661-22.462-41.988-.908-74.728 8.49-107.213 17.815-30.563 8.773-60.9 17.481-98.501 17.481-12.492 0-23.337 1.933-32.695 5.55z" fill="#fff"/><path opacity=".2" d="M184.253 6C96.592 6.258 57.434 116.877 0 116.877c-154.672 0-43.934 387.625-43.934 387.625H1578.57s140-376.75 0-376.75c-91.57 0-63.07-10.875-138.57-10.875-77.8 0-183.81-27.527-259.81-10.875-85.63 18.763-111.74 109.701-199.187 103.5-110.51-7.838-88.4-202.005-199.187-202-110.233.005-89.275 191.606-199.188 200-86.787 6.627-121.517-60.715-199.187-100C305.535 68.096 271.558 5.746 184.253 6.001z" fill="url(#paint0_linear)" stroke="#fff" stroke-width="2"/><path opacity=".3" d="M184.253 207.692C96.592 207.948 59 102.8 0 102.8c-154.672 0-43.934 503.392-43.934 503.392H1578.57s202.4-497.75 8-497.75c-77.57 0-82.57-5.642-146.57-5.642-77.8 0-183.81-111.76-259.81-95.108-85.63 18.763-111.74 109.701-199.187 103.5-110.51-7.838-88.399 97.995-199.187 98-110.233.005-89.275-208.394-199.188-200-86.787 6.627-121.517 139.285-199.187 100-77.906-39.405-111.883 98.245-199.188 98.5z" fill="url(#paint1_linear)" stroke="#fff" stroke-width="2"/><path opacity=".4" d="M184.253 6.111C96.75 2.07 73 109.611 0 109.611c-194.069 0-43.934 495-43.934 495H1578.57V6.111c-49.75 71.256-51.67 102.962-138.57 103.5-87.94.545-171.87-103.862-259.81-103.5-87.25.36-127.86 53.25-199.187 103.5-89.848 63.297-89.602 189.605-199.187 198-87.069 6.67-111.864-99.913-199.188-100-87.498-.087-111.834 105.038-199.187 100-140.844-8.122-58.26-294.99-199.188-301.5z" fill="url(#paint2_linear)" stroke="#fff" stroke-width="2"/></g><defs><linearGradient id="paint0_linear" x1="767.316" y1="-94.325" x2="767.316" y2="504.501" gradientUnits="userSpaceOnUse"><stop offset="0" stop-color="#fff" stop-opacity=".3"/><stop offset="1" stop-color="#fff" stop-opacity="0"/></linearGradient><linearGradient id="paint1_linear" x1="767.316" y1="7.366" x2="767.316" y2="606.192" gradientUnits="userSpaceOnUse"><stop offset="0" stop-color="#fff" stop-opacity=".3"/><stop offset="1" stop-color="#fff" stop-opacity="0"/></linearGradient><linearGradient id="paint2_linear" x1="767.316" y1="5.786" x2="767.316" y2="604.611" gradientUnits="userSpaceOnUse"><stop offset="0" stop-color="#fff" stop-opacity=".3"/><stop offset="1" stop-color="#fff" stop-opacity="0"/></linearGradient><clipPath id="clip0"><path fill="#fff" d="M0 0h1439v346H0z"/></clipPath></defs></svg>